<?xml version="1.0" encoding="utf-8"?>
<!-- Generator: Adobe Illustrator 16.0.0, SVG Export Plug-In . SVG Version: 6.00 Build 0)  -->
<!DOCTYPE svg PUBLIC "-//W3C//DTD SVG 1.1//EN" "http://www.w3.org/Graphics/SVG/1.1/DTD/svg11.dtd" [
	<!ENTITY ns_flows "http://ns.adobe.com/Flows/1.0/">
	<!ENTITY ns_extend "http://ns.adobe.com/Extensibility/1.0/">
	<!ENTITY ns_ai "http://ns.adobe.com/AdobeIllustrator/10.0/">
	<!ENTITY ns_graphs "http://ns.adobe.com/Graphs/1.0/">
]>
<svg version="1.1" id="Layer_1" xmlns:x="&ns_extend;" xmlns:i="&ns_ai;" xmlns:graph="&ns_graphs;"
	 xmlns="http://www.w3.org/2000/svg" xmlns:xlink="http://www.w3.org/1999/xlink" xmlns:a="http://ns.adobe.com/AdobeSVGViewerExtensions/3.0/"
	 x="0px" y="0px" width="2000px" height="2000px" viewBox="0 0 2000 2000" style="enable-background:new 0 0 2000 2000;"
	 xml:space="preserve">
<polygon style="fill:#999999;stroke:#000000;stroke-width:2;stroke-miterlimit:10;" points="1943.501,1512.875 71.875,1511.117 
	72.374,504.042 1944,505.799 "/>
<ellipse style="fill:#FFFFFF;stroke:#000000;stroke-width:2;stroke-miterlimit:10;" cx="1007.592" cy="1007.047" rx="360" ry="360.043"/>
<g>
	<g>
		<path style="fill-rule:evenodd;clip-rule:evenodd;fill:#DCDCDC;" d="M1049.497,716.355c2.267-0.221,4.085-0.813,5.361-3.138
			c8.911-16.233,20.824-30.285,32.616-44.415c22.651-23.034,47.199-43.677,75.17-60.071c15.219-8.919,31.191-16.213,47.564-22.684
			c12.943,10.005,24.549,21.459,35.933,33.151c1.268,1.302,2.499,2.651,2.801,4.562c0.204,2.437-1.312,4.174-2.478,6.05
			c-10.18,16.393-22.45,31.216-34.662,46.079c-1.096,1.333-2.022,3.196-4.337,2.663c-2.301-1.499-2.378-4.109-3.13-6.358
			c-6.947-20.731-27.934-33.463-48.394-29.328c-22.005,4.446-37.025,23.327-35.104,45.545c1.545,17.879,11.478,30.171,28.137,36.971
			c2.537,1.035,5.661,1.204,6.941,4.306c-0.377,2.476-2.393,3.701-4.086,5.048c-19.563,15.558-40.423,28.981-63.837,38.064
			c-9.669,3.75-19.588,6.27-30.155,5.741c-12.048-0.604-18.78-7.482-19.517-19.548c-0.507-8.319,2.221-15.935,3.788-23.81
			c0.485-3.919,2.557-7.152,4.531-10.441C1048.19,722.161,1049.957,719.631,1049.497,716.355z"/>
		<g>
			<path d="M1049.663,716.958c5.429-0.781,6.705-5.273,9.327-9.604c4.272-7.054,9.189-13.71,14.258-20.207
				c9.152-11.732,18.908-22.465,29.781-32.619c22.023-20.563,46.386-38.612,73.151-52.523c6.681-3.472,13.521-6.634,20.416-9.651
				c3.979-1.741,7.997-3.388,12.025-5.007c3.112-1.25,8.85,5.379,10.962,7.196c5.492,4.723,10.741,9.726,15.909,14.8
				c2.587,2.54,5.133,5.12,7.673,7.705c1.165,1.186,2.327,2.374,3.464,3.587c3.558,3.8,0.114,7.555-1.696,10.442
				c-8.543,13.625-18.677,26.19-28.848,38.616c-2.022,2.471-4.023,4.961-6.059,7.422c-3.112,3.762-5.611-6.556-6.097-7.803
				c-1.918-4.922-4.879-9.349-8.338-13.31c-14.403-16.497-38.432-18.501-56.411-6.908c-17.895,11.538-23.428,34.782-15.388,53.95
				c3.806,9.075,11.183,15.858,19.7,20.479c2.058,1.117,4.229,2.07,6.431,2.863c1.902,0.685,7.772,1.863,3.524,6.262
				c-0.978,1.012-2.331,1.859-3.428,2.728c-6.313,4.997-12.83,9.73-19.507,14.229c-12.415,8.365-25.604,15.566-39.437,21.297
				c-12.601,5.221-30.502,11.279-43.497,4.262c-10.507-5.674-9.283-20.018-7.178-29.756c1.274-5.895,2.194-12.205,5.1-17.527
				c2.101-3.846,4.78-6.957,4.619-11.525c-0.028-0.804-1.278-0.807-1.25,0c0.235,6.67-6.158,12.07-7.365,18.662
				c-1.257,6.862-3.404,13.445-3.843,20.451c-0.562,8.979,2.836,17.863,11.297,21.782c10.723,4.966,25.289,1.023,35.774-2.577
				c13.202-4.534,25.776-11.155,37.674-18.388c5.918-3.598,11.646-7.502,17.271-11.542c5.199-3.735,11.106-7.538,15.564-12.155
				c2.368-2.452,0.862-4.572-1.483-6.111c-2.006-1.316-4.944-1.811-7.113-2.786c-2.92-1.313-5.668-2.969-8.296-4.788
				c-21.573-14.927-22.136-47.322-3.617-64.759c20.162-18.984,51.973-12.653,65.568,10.521c1.621,2.762,2.873,5.773,3.764,8.843
				c0.426,1.467,0.729,3.584,1.979,4.651c3.225,2.751,5.354-0.799,7.382-3.266c9.486-11.545,18.927-23.128,27.447-35.414
				c2.125-3.063,4.15-6.195,6.131-9.354c0.903-1.441,2.407-3.17,2.495-4.98c0.263-5.395-5.87-9.424-9.271-12.852
				c-5.104-5.144-10.323-10.168-15.69-15.037c-2.685-2.435-5.438-4.792-8.22-7.113c-1.228-1.024-4.499-4.721-6.11-4.721
				c-2.553,0-6.525,2.585-8.897,3.572c-2.947,1.227-5.873,2.503-8.791,3.798c-7.459,3.307-14.778,6.917-21.969,10.772
				c-13.097,7.023-25.542,15.235-37.452,24.108c-15.979,11.904-30.795,25.31-44.829,39.434c-6.648,6.69-12.428,14.629-18.185,22.093
				c-3.258,4.226-6.354,8.571-9.308,13.014c-2.882,4.334-5.777,12.723-11.447,13.54
				C1048.535,715.867,1048.875,717.072,1049.663,716.958z"/>
		</g>
	</g>
	<g>
		<path style="fill-rule:evenodd;clip-rule:evenodd;fill:#A9A9A9;" d="M1043.607,734.109c-0.526,8.399-4.407,16.167-3.76,24.92
			c0.816,11.011,6.865,17.378,17.786,17.932c17.058,0.866,32.043-5.774,46.577-13.049c18.54-9.282,35.822-20.744,51.353-34.645
			c2.441-2.023,5.385-1.357,8.153-1.444c23.982-0.754,41.786-18.589,42.515-42.61c0.071-2.375-0.376-4.913,1.598-6.861
			c13.669-16.535,27.388-33.03,38.677-51.355c0.613-0.994,0.979-2.142,1.457-3.219c4.294-0.374,4.886,3.962,7.358,5.904
			c2.952,2.321,5.181,5.435,7.164,8.659c-11.693,30.913-27.824,59.291-48.591,85.02c-22.013,27.967-47.587,52.01-78.085,70.577
			c-2.075,1.263-3.584,2.503-3.599,5.035c-2.392-0.522-4.312,0.634-6.238,1.757c-20.715,12.074-42.791,21.003-65.558,28.323
			c-3.656,1.176-7.213,2.625-10.876,3.776c-0.671-0.422-1.343-0.842-2.014-1.262c-9.548-10.835-19.744-21.022-30.573-30.577
			c-0.423-0.666-0.844-1.332-1.266-1.999c6.771-20.122,13.197-40.383,22.995-59.325
			C1039.818,737.467,1040.306,734.479,1043.607,734.109z"/>
		<g>
			<path d="M1042.982,734.109c-1.04,11.771-6.939,23.188-1.127,34.656c4.627,9.131,15.91,9.34,24.728,8.606
				c13.442-1.119,26.036-6.987,37.943-12.919c13.235-6.594,25.816-14.424,37.623-23.321c2.409-1.815,4.761-3.704,7.095-5.612
				c3.524-2.883,6.845-6.995,11.671-7.107c5.654-0.131,10.85-0.599,16.28-2.317c9.118-2.884,16.83-9.042,22.215-16.857
				c2.723-3.951,4.564-8.457,5.863-13.052c0.628-2.225,0.98-4.512,1.279-6.799c0.706-5.402,0.106-8.642,4.062-13.427
				c9.401-11.374,18.726-22.812,27.282-34.842c2.133-2.998,4.182-6.053,6.194-9.132c1.07-1.638,3.816-9.273,7.163-6.408
				c1.445,1.237,2.212,3.222,3.625,4.547c3.318,3.109,7.652,6.406,5.734,11.354c-5.48,14.135-12.086,27.818-19.561,41.002
				c-14.381,25.365-32.697,48.728-53.199,69.425c-10.167,10.264-21.144,19.713-32.742,28.321
				c-5.418,4.021-11.021,7.788-16.728,11.387c-2.141,1.351-4.33,2.428-5.939,4.416c-1.397,1.726-1.146,2.015-3.693,2.603
				c-2.694,0.623-5.505,2.952-7.897,4.29c-3.207,1.793-6.47,3.484-9.746,5.144c-7.579,3.838-15.364,7.263-23.233,10.457
				c-6.797,2.76-13.7,5.254-20.643,7.623c-3.531,1.205-7.095,2.311-10.613,3.551c-1.81,0.638-3.609,1.301-5.422,1.933
				c-3.125,1.089-5.242-2.771-6.998-4.71c-5.893-6.504-12.087-12.73-18.459-18.763c-2.384-2.257-10.07-7.15-8.854-10.773
				c1.393-4.144,2.774-8.291,4.175-12.432c2.798-8.278,5.724-16.509,8.946-24.632c1.822-4.593,3.805-9.119,5.891-13.598
				c1.519-3.262,3.827-11.011,7.876-12.009c0.782-0.193,0.45-1.398-0.332-1.205c-2.335,0.576-3.366,1.697-4.403,3.846
				c-1.947,4.037-3.93,8.062-5.788,12.143c-3.902,8.567-7.202,17.401-10.343,26.271c-1.667,4.708-3.257,9.444-4.847,14.179
				c-0.513,1.527-3.741,8.055-2.914,9.363c2.138,3.379,5.413,5.738,8.336,8.446c3.679,3.408,7.255,6.925,10.781,10.489
				c3.527,3.566,6.947,7.238,10.314,10.955c0.691,0.763,3.526,4.759,5.127,4.234c9.451-3.098,18.9-6.332,28.241-9.75
				c8.653-3.167,17.167-6.705,25.538-10.554c4.443-2.043,8.816-4.236,13.148-6.503c4.439-2.323,10.372-7.342,15.578-7.027
				c0.372,0.022,0.583-0.304,0.625-0.625c0.635-4.829,9.525-8.384,13.274-10.885c4.198-2.801,8.288-5.759,12.321-8.791
				c8.064-6.063,15.737-12.635,23.109-19.519c14.919-13.934,28.252-29.539,40.464-45.875c12.944-17.316,23.866-36.092,32.89-55.725
				c1.982-4.314,3.831-8.689,5.62-13.086c0.888-2.183,1.733-4.383,2.573-6.585c0.323-0.847-1.44-2.616-1.834-3.202
				c-2.252-3.354-5.58-5.643-7.814-8.964c-1.416-2.104-2.936-3.141-5.477-3.188c-0.303-0.006-0.496,0.201-0.603,0.459
				c-2.724,6.591-7.492,12.586-11.607,18.372c-4.583,6.444-9.452,12.683-14.389,18.857c-4.592,5.744-9.292,11.401-13.978,17.069
				c-2.993,3.621-1.748,9.604-2.454,14.014c-1.822,11.382-8.441,21.449-17.863,27.969c-4.599,3.182-9.9,5.167-15.329,6.371
				c-3.084,0.684-6.266,0.939-9.419,0.932c-1.779-0.004-4.212-0.292-5.813,0.729c-5.323,3.396-9.956,8.272-14.989,12.127
				c-5.629,4.312-11.509,8.29-17.51,12.063c-12.266,7.713-25.421,14.644-39.027,19.658c-11.204,4.129-29.735,9.056-39.588-0.297
				c-10.202-9.685-2.178-25.856-1.161-37.366C1044.304,733.306,1043.053,733.313,1042.982,734.109z"/>
		</g>
	</g>
	<g>
		<path style="fill-rule:evenodd;clip-rule:evenodd;fill:#C62B2C;" d="M1262.485,638.341c-4.672-1.912-6.463-6.756-9.992-9.844
			c-1.635-1.431-3.028-3.138-4.53-4.72c-10.523-11.993-22.224-22.768-34.221-33.247c-1.425-1.244-3.739-1.908-3.531-4.482
			c17.576-6.176,35.377-11.251,54.259-10.975c7.271,0.107,8.576,1.63,8.798,9.018
			C1273.827,603.015,1268.647,620.768,1262.485,638.341z"/>
		<g>
			<path d="M1262.801,637.801c-2.848-1.395-4.578-3.453-6.483-5.906c-2.065-2.662-4.538-4.869-6.801-7.356
				c-5.733-6.3-11.533-12.481-17.67-18.395c-5.69-5.483-11.489-11.37-17.789-16.153c-0.433-0.329-4.599-3.02-1.922-3.954
				c2.341-0.817,4.694-1.595,7.052-2.363c4.11-1.338,8.264-2.534,12.443-3.634c8.905-2.345,18.008-3.817,27.206-4.269
				c3.512-0.172,7.913-0.632,11.237,0.794c3.086,1.323,2.553,6.756,2.605,9.415c0.352,17.928-4.958,35.445-10.797,52.195
				c-0.267,0.763,0.941,1.088,1.205,0.332c4.27-12.249,8.035-24.634,9.865-37.508c0.796-5.603,1.05-11.255,0.939-16.908
				c-0.053-2.676-0.201-5.525-1.938-7.681c-1.371-1.701-4.235-1.794-6.189-1.924c-5.996-0.399-12.255,0.195-18.186,1.066
				c-12.871,1.891-25.277,5.615-37.534,9.894c-0.249,0.087-0.481,0.315-0.459,0.603c0.315,3.971,5.152,6.178,7.854,8.565
				c5.962,5.268,11.799,10.674,17.467,16.256c5.539,5.456,10.602,11.328,15.959,16.951c3.55,3.726,6.582,8.748,11.305,11.06
				C1262.891,639.233,1263.524,638.156,1262.801,637.801z"/>
		</g>
	</g>
	<g>
		<path style="fill-rule:evenodd;clip-rule:evenodd;fill:#C62B2C;" d="M1043.607,734.109
			c-10.601,18.795-17.719,39.007-24.316,59.443c-0.654,2.029-0.171,5.13-3.604,5.441c-8.99-3.076-18.252-3.347-27.598-2.621
			c-6.033,0.47-10.471,4.01-14.644,7.922c-19.107,17.903-36.497,37.374-52.685,57.933c-0.859,1.092-1.782,2.132-3.081,2.987
			c1.9-8.997,5.677-17.3,9.431-25.518c15.505-33.953,33.897-66.205,57.608-95.206c5.258-6.43,11.156-12.271,17.037-18.148
			c11.327-11.319,25.132-12.802,39.938-11.097c2.608,0.301,5.201,0.737,7.803,1.109c2.517,1.08,2.046,2.569,0.932,4.563
			C1048.017,725.238,1045.865,729.704,1043.607,734.109z"/>
		<g>
			<path d="M1043.067,733.794c-8.103,14.532-14.294,29.932-19.738,45.628c-1.406,4.054-2.745,8.132-4.074,12.212
				c-0.407,1.253-0.739,2.378-0.967,3.663c-0.688,3.888-5.462,2.148-7.86,1.569c-7.333-1.771-16.722-2.545-24.112-0.896
				c-6.6,1.473-11.2,5.866-15.968,10.389c-6.172,5.855-12.143,11.921-17.987,18.103c-5.84,6.176-11.486,12.533-17.017,18.986
				c-2.768,3.229-5.482,6.503-8.178,9.793c-3.094,3.777-5.909,8.436-9.802,11.431c0.306,0.235,0.612,0.47,0.918,0.706
				c4.143-18.333,13.958-35.881,22.598-52.452c8.72-16.723,18.482-32.897,29.333-48.324c5.416-7.7,11.126-15.233,17.239-22.394
				c6.162-7.218,13.08-15.087,20.917-20.49c7.463-5.144,16.631-6.542,25.498-6.421c2.608,0.035,18.514,0.355,16.021,5.303
				C1047.663,725.02,1045.312,729.384,1043.067,733.794c-0.364,0.717,0.714,1.35,1.08,0.631c2.438-4.789,4.977-9.531,7.393-14.328
				c0.538-1.068,0.661-2.857-0.559-3.584c-3.329-1.985-8.606-1.855-12.444-2.207c-4.59-0.42-9.339-0.471-13.906,0.206
				c-20.346,3.016-33.999,21.235-45.9,36.502c-13.091,16.793-24.511,34.836-34.757,53.485c-5.403,9.834-10.404,19.885-15.168,30.042
				c-4.631,9.874-9.314,19.819-11.729,30.506c-0.107,0.474,0.447,1.068,0.918,0.706c5.779-4.446,10.038-11.659,14.703-17.246
				c5.837-6.992,11.875-13.814,18.059-20.5c5.775-6.244,11.743-12.308,17.842-18.235c3.18-3.09,6.346-6.243,9.883-8.929
				c4.572-3.472,9.668-3.944,15.203-4.147c4.891-0.18,9.768,0.182,14.589,1.003c2.927,0.499,5.903,2.291,8.826,1.604
				c1.237-0.291,1.801-1.661,2.182-2.689c1.379-3.722,2.214-7.833,3.48-11.636c5.793-17.393,12.443-34.514,21.386-50.553
				C1044.54,733.72,1043.46,733.09,1043.067,733.794z"/>
		</g>
	</g>
	<g>
		<path style="fill-rule:evenodd;clip-rule:evenodd;fill:#C62B2C;" d="M1049.539,832.83c-0.037-2.952,2.585-2.814,4.265-3.319
			c25.315-7.602,49.573-17.674,72.658-30.58c1.686-0.941,3.889-3.733,5.749,0.044c0.498,3.998,1.001,7.998,1.487,11.999
			c1.992,16.396-4.227,29.335-15.962,40.548c-25.104,23.985-54.196,42.036-84.693,58.075c-15.184,7.986-30.741,15.176-46.914,20.977
			c-0.944,0.339-1.79,0.975-2.967,0.255c10.888-9.313,21.786-18.542,32.579-27.894c9.644-8.356,18.324-17.723,27.536-26.528
			c10.203-9.754,10.56-21.624,8.587-34.201C1051.367,839.036,1050.329,835.952,1049.539,832.83z"/>
		<g>
			<path d="M1050.142,832.996c0.47-3.111,6.86-3.805,9.111-4.51c3.51-1.1,6.996-2.274,10.473-3.474
				c7.515-2.594,14.925-5.481,22.255-8.556c6.252-2.623,12.41-5.464,18.502-8.438c3.305-1.613,6.57-3.304,9.822-5.021
				c1.544-0.815,10.822-7.707,11.495-2.311c1.758,14.095,2.66,26.439-5.059,39.069c-7.271,11.898-19.875,21.137-30.699,29.604
				c-23.448,18.343-49.72,33.297-76.426,46.332c-7.102,3.466-14.324,6.678-21.635,9.675c-3.402,1.395-6.839,2.702-10.288,3.975
				c1.087-0.401-3.67,1.568-2.604,0.657c1.979-1.691,3.958-3.38,5.939-5.07c12.085-10.31,24.434-20.388,35.84-31.458
				c5.227-5.073,10.312-10.29,15.538-15.364c3.926-3.811,6.983-7.708,9.016-12.829c4.129-10.405,1.455-22.271-1.28-32.617
				c-0.206-0.779-1.411-0.448-1.205,0.332c2.433,9.202,4.302,18.384,2.456,27.891c-2.118,10.906-11.503,17.878-18.937,25.297
				c-15.725,15.694-32.863,29.775-49.736,44.202c-0.373,0.318-0.144,0.917,0.276,1.044c1.932,0.587,3.114-0.188,5.029-0.881
				c3.457-1.252,6.878-2.6,10.288-3.975c6.861-2.768,13.605-5.819,20.28-9.003c13.379-6.382,26.436-13.502,39.216-21.005
				c12.516-7.348,24.643-15.352,36.227-24.098c10.691-8.072,21.814-16.799,30.317-27.222c6.9-8.458,10.441-18.726,10.321-29.608
				c-0.037-3.281-0.581-6.559-0.983-9.808c-0.22-1.778,0.032-5.692-0.939-7.171c-2.083-3.169-3.787-2.114-6.604-0.268
				c-13.011,8.521-28.594,14.622-42.986,20.32c-6.83,2.704-13.759,5.149-20.734,7.444c-3.195,1.052-6.418,2.184-9.689,2.969
				c-1.674,0.401-2.627,0.716-3.551,2.154c-0.195,0.43-0.279,0.892-0.249,1.385C1048.817,833.452,1050.021,833.791,1050.142,832.996
				z"/>
		</g>
	</g>
	<g>
		<path style="fill-rule:evenodd;clip-rule:evenodd;fill:#A9A9A9;" d="M1033.95,841.138c-7.668,18.213-17.721,34.876-31.127,49.54
			c-13.625,14.903-29.527,26.333-48.484,33.345c-11.745,4.346-23.715,8.028-35.95,10.741c-2.415,0.537-6.258,1.959-4.937-3.392
			c5.827-23.604,12.083-47.057,27.18-66.873c16.57-21.749,37.976-37.24,62.88-48.139c1.298-0.567,2.566-1.199,3.85-1.801
			c4.29-1.196,5.614,1.374,6.208,4.877c-9.324,6.009-19.242,11.086-27.975,18.055c-14.551,11.611-25.836,25.696-32.514,43.135
			c-2.722,7.108-6.846,13.843-7.003,22.52c19.479-5.971,37.938-13.103,52.935-27.19c11.341-10.651,20.515-22.883,27.37-36.855
			c0.707-1.444,1.306-2.983,2.604-4.066C1032.615,835.465,1035.081,836.842,1033.95,841.138z"/>
		<g>
			<path d="M1033.41,840.823c-11.429,26.833-28.576,51.39-52.494,68.491c-11.923,8.524-25.308,13.891-39.16,18.412
				c-7.14,2.33-14.389,4.308-21.7,6.021c-1.132,0.265-2.268,0.519-3.401,0.781c-2.969,0.688-2.69-2.626-2.193-4.637
				c0.95-3.838,1.928-7.668,2.944-11.49c3.739-14.062,8.38-27.892,15.371-40.699c6.8-12.457,16.354-23.342,26.823-32.841
				c10.184-9.241,21.784-16.808,33.977-23.11c2.876-1.487,5.811-2.858,8.76-4.192c1.356-0.614,2.715-1.214,4.06-1.852
				c1.994-0.946,9.329,1.614,5.381,4.131c-6.405,4.083-13.047,7.771-19.39,11.954c-12.068,7.956-22.532,18.431-30.567,30.431
				c-4.114,6.144-7.189,12.803-9.903,19.655c-2.799,7.066-6.089,13.522-6.464,21.269c-0.02,0.4,0.415,0.719,0.791,0.603
				c17.711-5.466,35.018-12.18,49.496-24.059c7.463-6.123,13.936-13.562,19.685-21.285c3.055-4.104,5.77-8.451,8.299-12.894
				c1.135-1.995,2.174-4.042,3.199-6.096c0.337-0.734,0.696-1.457,1.08-2.169c2.228-4.299,5.714,1.743,5.345,3.725
				c-0.146,0.788,1.058,1.124,1.205,0.332c0.4-2.151,0.413-3.787-1.188-5.404c-0.814-0.822-3.675-2.002-4.692-1.406
				c-2.569,1.505-3.902,6.451-5.199,8.884c-2.678,5.019-5.795,9.792-9.127,14.396c-13.168,18.196-30.584,30.873-51.395,38.983
				c-4.565,1.779-9.222,3.32-13.889,4.806c-3.71,1.181-2.049-2.343-1.511-4.823c0.652-3.005,1.887-5.913,3.08-8.73
				c3.875-9.149,7.575-18.147,13.129-26.442c5.759-8.601,13.094-16.051,21.038-22.634c8.937-7.406,19.339-12.745,29.087-18.959
				c0.25-0.159,0.345-0.42,0.287-0.706c-2.192-10.855-13.798-2.288-19.788,0.675c-11.477,5.677-22.236,12.725-32.075,20.91
				c-21.043,17.507-34.708,39.906-42.848,65.852c-2.025,6.453-3.727,13.006-5.383,19.562c-0.422,1.668-3.245,8.17-0.321,9.366
				c3.341,1.367,8.95-1.219,12.107-2.01c7.891-1.977,15.658-4.423,23.34-7.089c24.917-8.648,45.896-23.945,62.021-44.849
				c9.529-12.355,17.155-25.89,23.265-40.232C1034.802,840.721,1033.726,840.083,1033.41,840.823z"/>
		</g>
	</g>
	<g>
		<path style="fill-rule:evenodd;clip-rule:evenodd;fill:#2F9AC2;" d="M1033.95,841.138c-0.456-2.962-2.552-4.503-4.984-5.755
			c-7.153-3.403-12.495-8.609-15.78-15.862c-1.324-2.381-2.843-4.529-5.826-4.961c-4.765-6.283-4.759-6.27,2.705-9.969
			c2.32-1.15,4.591-2.396,6.886-3.599c1.813-0.815,2.933,0.186,4.13,1.392c8.323,8.383,16.679,16.733,25.064,25.055
			c1.205,1.196,2.212,2.319,1.379,4.13c-1.206,2.292-2.448,4.566-3.613,6.88C1040.158,845.9,1040.17,845.906,1033.95,841.138z"/>
		<g>
			<path d="M1034.553,840.972c-0.797-3.039-2.564-4.628-5.271-6.128c-4.214-2.335-7.904-4.792-11.104-8.456
				c-2.804-3.211-4.031-7.354-6.841-10.52c-1.769-1.992-10.242-5.424-4.562-8.883c1.696-1.033,3.567-1.835,5.337-2.732
				c1.148-0.598,2.294-1.202,3.436-1.812c3.823-2.03,5.834,1.135,7.866,3.179c4.627,4.654,9.267,9.296,13.913,13.931
				c1.858,1.854,3.72,3.705,5.581,5.556c0.932,0.925,1.862,1.851,2.795,2.775c2.522,2.505-0.302,6.35-1.446,8.524
				c-1.083,2.058-2.053,4.171-3.274,6.152c-1.724,2.794-5.44-0.984-6.717-1.958c-0.641-0.49-1.262,0.597-0.631,1.079
				c1.484,1.135,5.226,4.919,7.382,2.752c1.564-1.572,2.446-3.712,3.434-5.665c1.199-2.374,4.004-5.661,4.004-8.437
				c0-1.994-2.024-3.486-3.265-4.718c-3.261-3.236-6.515-6.479-9.766-9.726c-3.251-3.246-6.496-6.498-9.737-9.753
				c-1.544-1.55-3.951-5.288-6.274-5.803c-2.429-0.539-4.065,0.805-6.211,1.944c-2.827,1.501-5.939,2.707-8.529,4.611
				c-2.27,1.669-0.734,4.007,0.503,5.791c1.964,2.831,4.868,3.231,6.787,5.998c1.664,2.4,2.61,5.175,4.457,7.498
				c1.778,2.238,3.738,4.339,6.063,6.026c3.729,2.706,9.577,4.194,10.865,9.107C1033.552,842.083,1034.758,841.752,1034.553,840.972
				z"/>
		</g>
	</g>
	<g>
		<path style="fill-rule:evenodd;clip-rule:evenodd;fill:#C62B2C;" d="M1207.829,678.352c1.237,18.196-4.457,33.248-19.961,43.804
			c-9.807,6.679-20.824,7.974-32.305,7.112c-16.381-4.522-28.684-13.673-34.249-30.36c-7.944-23.822,5.798-49.853,29.859-56.668
			c24.573-6.958,49.776,7.864,55.555,32.655C1207.002,676.068,1207.457,677.2,1207.829,678.352z"/>
		<g>
			<path d="M1207.204,678.352c0.646,11.203-1.216,22.036-7.535,31.484c-7.636,11.417-20.475,17.845-33.918,18.913
				c-24.209,1.923-44.65-18.205-46.029-41.836c-1.354-23.232,16.98-43.13,39.639-45.577c10.487-1.132,21.002,2.051,29.598,7.988
				c4.602,3.178,8.397,7.427,11.451,12.077c3.49,5.315,4.8,11.208,6.817,17.117c0.259,0.758,1.467,0.433,1.205-0.332
				c-1.764-5.168-2.988-10.262-5.578-15.117c-2.513-4.708-6.071-8.813-10.059-12.322c-7.392-6.505-16.956-10.048-26.695-10.773
				c-21.014-1.565-39.812,12.759-45.868,32.479c-6.135,19.977,3.453,41.6,21.219,51.83c4.349,2.504,9.141,4.213,13.947,5.588
				c5.499,1.573,13.225,0.098,18.73-1.072c11.231-2.387,21.072-10.035,27.374-19.458c6.073-9.081,7.568-20.31,6.952-30.989
				C1208.408,677.55,1207.157,677.546,1207.204,678.352z"/>
		</g>
	</g>
	<g>
		<path style="fill-rule:evenodd;clip-rule:evenodd;fill:#333333;" d="M1013.186,819.521c5.261,5.287,10.522,10.573,15.781,15.861
			c-2.432,9.808-8.521,17.674-14.25,25.559c-16.386,22.549-39.348,35.311-65.625,42.951c-4.074,1.185-5.885,1.909-4.381-3.818
			c7.961-30.305,23.641-54.922,50.971-71.335C1001.35,825.334,1006.41,820.814,1013.186,819.521z"/>
		<g>
			<path d="M1012.743,819.963c3.946,3.965,7.892,7.93,11.837,11.895c2.849,2.863,3.695,4.205,2.282,8.109
				c-1.093,3.019-2.691,5.849-4.323,8.6c-5.348,9.017-12.088,17.593-19.515,24.972c-14.483,14.39-33.256,23.419-52.586,29.304
				c-1.57,0.478-3.202,1.063-4.842,1.246c-1.63,0.181,0.755-7.607,0.928-8.208c1.361-4.729,3.015-9.367,4.852-13.931
				c3.534-8.779,8.192-17.08,13.74-24.738c5.84-8.062,12.998-15.119,20.876-21.176c4.014-3.086,8.347-5.646,12.587-8.393
				c4.749-3.077,9.153-6.225,14.773-7.52c0.785-0.181,0.452-1.386-0.332-1.205c-4.66,1.074-8.563,3.327-12.526,5.947
				c-4.649,3.074-9.431,5.925-13.944,9.203c-7.831,5.687-14.923,12.574-20.809,20.257c-6.092,7.952-11.007,16.601-14.95,25.802
				c-1.953,4.559-3.581,9.25-5.043,13.986c-0.652,2.111-3.506,8.059-1.952,10.252c0.883,1.247,2.096,0.998,3.472,0.693
				c5.199-1.151,10.347-3.146,15.32-5.017c10.024-3.769,19.576-8.724,28.364-14.845c8.472-5.901,15.914-13.154,22.289-21.257
				c6.73-8.555,13.447-17.76,16.33-28.393c0.059-0.216-0.003-0.449-0.161-0.608c-5.259-5.288-10.521-10.574-15.78-15.861
				C1013.059,818.508,1012.175,819.392,1012.743,819.963z"/>
		</g>
	</g>
	<g>
		<path style="fill-rule:evenodd;clip-rule:evenodd;fill:#2F9AC2;" d="M1163.712,716.289c-17.625,0.076-31.273-13.331-31.451-30.896
			c-0.182-17.847,13.53-31.69,31.342-31.646c17.6,0.044,31.132,13.591,31.186,31.218
			C1194.842,702.502,1181.238,716.214,1163.712,716.289z"/>
		<g>
			<path d="M1163.712,715.664c-17.155-0.271-30.305-13.088-30.826-30.271c-0.528-17.401,13.831-30.716,30.717-31.021
				c17.194-0.31,30.175,13.942,30.561,30.593C1194.561,702.096,1180.324,715.252,1163.712,715.664c-0.805,0.02-0.807,1.27,0,1.25
				c17.826-0.442,31.391-14.124,31.701-31.949c0.312-17.875-14.474-31.449-31.811-31.843c-18.111-0.411-31.787,14.737-31.967,32.271
				c-0.183,17.876,14.775,31.247,32.076,31.521C1164.519,716.927,1164.518,715.677,1163.712,715.664z"/>
		</g>
	</g>
</g>
<g>
	<path style="fill:#2F9AC2;stroke:#000000;stroke-width:2;stroke-miterlimit:10;" d="M312.787,1043.211h41.902v18.305h-65.973
		v-98.709h24.071V1043.211z"/>
	<path style="fill:#2F9AC2;stroke:#000000;stroke-width:2;stroke-miterlimit:10;" d="M425.462,1061.516h-24.003v-98.709h24.003
		V1061.516z"/>
	<path style="fill:#2F9AC2;stroke:#000000;stroke-width:2;stroke-miterlimit:10;" d="M540.058,1022.194h-38.816v39.321h-24.071
		v-98.709h66.796v18.372h-42.725v22.711h38.816V1022.194z"/>
	<path style="fill:#2F9AC2;stroke:#000000;stroke-width:2;stroke-miterlimit:10;" d="M650.882,1019.618h-37.856v23.593h44.714
		v18.305h-68.785v-98.709h68.922v18.372h-44.851v20.813h37.856V1019.618z"/>
	<path style="fill:#2F9AC2;stroke:#000000;stroke-width:2;stroke-miterlimit:10;" d="M796.543,1043.211h41.902v18.305h-65.973
		v-98.709h24.071V1043.211z"/>
	<path style="fill:#2F9AC2;stroke:#000000;stroke-width:2;stroke-miterlimit:10;" d="M940.286,1043.075h-32.987l-5.761,18.44
		h-25.717l36.621-98.709h22.631l36.896,98.709h-25.854L940.286,1043.075z M913.06,1024.703h21.465l-10.767-34.236L913.06,1024.703z"
		/>
	<path style="fill:#2F9AC2;stroke:#000000;stroke-width:2;stroke-miterlimit:10;" d="M1092.531,962.807v64.608
		c0,7.321-1.577,13.66-4.732,19.017c-3.154,5.355-7.681,9.435-13.578,12.236c-5.898,2.803-12.871,4.203-20.917,4.203
		c-12.162,0-21.739-3.118-28.734-9.355s-10.562-14.779-10.698-25.626v-65.083h24.208v65.558c0.274,10.803,5.35,16.203,15.225,16.203
		c4.982,0,8.755-1.356,11.315-4.068s3.841-7.118,3.841-13.22v-64.473H1092.531z"/>
	<path style="fill:#2F9AC2;stroke:#000000;stroke-width:2;stroke-miterlimit:10;" d="M1225.917,1061.516h-23.934l-35.387-61.422
		v61.422h-24.071v-98.709h24.071l35.318,61.422v-61.422h24.002V1061.516z"/>
	<path style="fill:#2F9AC2;stroke:#000000;stroke-width:2;stroke-miterlimit:10;" d="M1356.904,1028.093
		c-0.32,6.871-2.194,12.938-5.624,18.203c-3.429,5.266-8.241,9.345-14.436,12.236c-6.195,2.894-13.271,4.339-21.226,4.339
		c-13.122,0-23.454-4.225-30.997-12.677c-7.544-8.451-11.315-20.384-11.315-35.796v-4.882c0-9.671,1.702-18.135,5.108-25.389
		c3.405-7.254,8.309-12.858,14.711-16.813c6.4-3.955,13.807-5.932,22.219-5.932c12.115,0,21.854,3.152,29.215,9.458
		c7.36,6.305,11.544,14.994,12.55,26.067h-24.002c-0.184-6.01-1.715-10.327-4.595-12.949c-2.881-2.621-7.27-3.932-13.168-3.932
		c-5.989,0-10.379,2.215-13.167,6.644c-2.789,4.43-4.252,11.503-4.389,21.219v6.983c0,10.531,1.337,18.057,4.012,22.575
		c2.675,4.521,7.28,6.779,13.818,6.779c5.531,0,9.761-1.288,12.688-3.864c2.926-2.576,4.48-6.666,4.663-12.271H1356.904z"/>
	<path style="fill:#2F9AC2;stroke:#000000;stroke-width:2;stroke-miterlimit:10;" d="M1486.725,1061.516h-23.935v-41.219h-35.455
		v41.219h-24.071v-98.709h24.071v39.186h35.455v-39.186h23.935V1061.516z"/>
	<path style="fill:#2F9AC2;stroke:#000000;stroke-width:2;stroke-miterlimit:10;" d="M1598.851,1019.618h-37.855v23.593h44.713
		v18.305h-68.784v-98.709h68.922v18.372h-44.851v20.813h37.855V1019.618z"/>
	<path style="fill:#2F9AC2;stroke:#000000;stroke-width:2;stroke-miterlimit:10;" d="M1687.592,1026.602h-13.029v34.914h-24.071
		v-98.709h39.296c11.84,0,21.099,2.596,27.774,7.788c6.675,5.193,10.013,12.529,10.013,22.01c0,6.863-1.406,12.552-4.218,17.066
		s-7.213,8.172-13.201,10.971l20.848,39.856v1.018h-25.786L1687.592,1026.602z M1674.562,1008.297h15.225
		c4.571,0,8.012-1.188,10.321-3.567c2.308-2.38,3.463-5.698,3.463-9.958c0-4.258-1.166-7.6-3.498-10.024
		c-2.331-2.424-5.76-3.637-10.286-3.637h-15.225V1008.297z"/>
</g>
<g>
	<path d="M573.724,1160.613h-4.887v-25.548h-32.79v25.548h-4.848v-53.292h4.848v23.938h32.79v-23.938h4.887V1160.613z"/>
	<path d="M619.992,1135.065h-26.839v21.741h30.859v3.807h-35.707v-53.292h35.509v3.807h-30.662v20.131h26.839V1135.065z"/>
	<path d="M639.106,1156.807h28.336v3.807h-33.224v-53.292h4.887V1156.807z"/>
	<path d="M681.591,1138.908v21.705h-4.848v-53.292h19.548c5.964,0,10.674,1.416,14.129,4.246c3.455,2.831,5.183,6.723,5.183,11.676
		c0,5.003-1.662,8.864-4.985,11.584c-3.324,2.722-8.139,4.081-14.444,4.081H681.591z M681.591,1135.103h14.7
		c4.703,0,8.29-1.039,10.759-3.116c2.469-2.077,3.705-4.973,3.705-8.688c0-3.689-1.229-6.628-3.685-8.815
		c-2.457-2.187-5.945-3.305-10.463-3.354h-15.016V1135.103z"/>
	<path d="M732.353,1160.613h-4.847v-53.292h4.847V1160.613z"/>
	<path d="M790.642,1160.613h-4.848l-32.987-45.605v45.605h-4.887v-53.292h4.887l33.026,45.643v-45.643h4.808V1160.613z"/>
	<path d="M846.645,1154.281c-1.682,2.221-4.315,3.953-7.902,5.197s-7.6,1.867-12.04,1.867c-4.493,0-8.487-1.001-11.981-3.002
		c-3.495-2-6.201-4.831-8.119-8.491c-1.918-3.66-2.891-7.856-2.917-12.591v-6.734c0-7.394,2.01-13.231,6.03-17.515
		c4.02-4.282,9.419-6.423,16.198-6.423c5.912,0,10.667,1.396,14.267,4.19c3.6,2.795,5.741,6.644,6.424,11.548h-4.848
		c-0.709-3.916-2.424-6.884-5.143-8.903c-2.72-2.019-6.273-3.028-10.661-3.028c-5.36,0-9.604,1.771-12.73,5.311
		c-3.127,3.542-4.69,8.535-4.69,14.982v6.3c0,4.054,0.742,7.638,2.227,10.751c1.484,3.113,3.612,5.525,6.384,7.234
		c2.772,1.71,5.958,2.564,9.557,2.564c4.178,0,7.764-0.61,10.759-1.83c1.944-0.806,3.389-1.744,4.335-2.818v-13.763h-15.41v-3.807
		h20.257V1154.281z"/>
	<path d="M912.5,1147.51c0-2.952-1.117-5.289-3.35-7.009c-2.234-1.721-6.319-3.354-12.257-4.904
		c-5.938-1.55-10.273-3.239-13.006-5.069c-3.889-2.587-5.833-5.979-5.833-10.176c0-4.074,1.806-7.387,5.419-9.938
		c3.612-2.549,8.23-3.824,13.853-3.824c3.809,0,7.218,0.684,10.227,2.05c3.008,1.366,5.34,3.27,6.995,5.709
		c1.655,2.44,2.483,5.161,2.483,8.162h-4.887c0-3.646-1.34-6.577-4.02-8.792c-2.68-2.215-6.28-3.322-10.798-3.322
		c-4.388,0-7.882,0.91-10.483,2.731c-2.601,1.82-3.902,4.196-3.902,7.13c0,2.713,1.169,4.925,3.508,6.636
		c2.338,1.711,6.082,3.22,11.232,4.527c5.149,1.308,9.051,2.663,11.705,4.065c2.653,1.403,4.65,3.081,5.99,5.033
		c1.34,1.952,2.01,4.258,2.01,6.917c0,4.197-1.807,7.564-5.419,10.103c-3.613,2.538-8.375,3.807-14.287,3.807
		c-4.046,0-7.758-0.672-11.134-2.014s-5.938-3.221-7.685-5.637c-1.748-2.415-2.621-5.185-2.621-8.309h4.848
		c0,3.759,1.51,6.723,4.532,8.895c3.021,2.172,7.041,3.258,12.06,3.258c4.466,0,8.053-0.915,10.759-2.745
		C911.146,1152.964,912.5,1150.536,912.5,1147.51z"/>
	<path d="M966.769,1111.128h-19.666v49.485h-4.848v-49.485h-19.626v-3.807h44.14V1111.128z"/>
	<path d="M1015.561,1107.321v36.382c-0.027,3.587-0.881,6.711-2.562,9.37c-1.682,2.66-4.053,4.703-7.113,6.131
		c-3.062,1.428-6.576,2.142-10.543,2.142c-6.043,0-10.884-1.531-14.523-4.594c-3.639-3.062-5.524-7.302-5.655-12.719v-36.712h4.808
		v36.053c0,4.49,1.379,7.974,4.138,10.449c2.759,2.478,6.502,3.716,11.232,3.716s8.467-1.245,11.213-3.733
		c2.744-2.489,4.117-5.954,4.117-10.396v-36.089H1015.561z"/>
	<path d="M1029.078,1160.613v-53.292h16.04c4.703,0,8.92,0.995,12.65,2.983c3.73,1.989,6.642,4.838,8.729,8.547
		c2.089,3.709,3.134,7.93,3.134,12.664v4.904c0,4.758-1.038,8.979-3.113,12.664c-2.076,3.685-4.999,6.527-8.77,8.528
		s-8.099,3.001-12.985,3.001H1029.078z M1033.926,1111.128v45.679h10.877c6.043,0,10.891-1.862,14.543-5.586
		c3.651-3.725,5.478-8.761,5.478-15.11v-4.689c0-6.129-1.8-11.037-5.399-14.725s-8.342-5.544-14.227-5.568H1033.926z"/>
	<path d="M1113.614,1135.065h-26.839v21.741h30.858v3.807h-35.706v-53.292h35.509v3.807h-30.661v20.131h26.839V1135.065z"/>
	<path d="M1170.562,1160.613h-4.847l-32.987-45.605v45.605h-4.887v-53.292h4.887l33.026,45.643v-45.643h4.808V1160.613z"/>
	<path d="M1222.939,1111.128h-19.666v49.485h-4.848v-49.485H1178.8v-3.807h44.14V1111.128z"/>
	<path d="M1264.046,1147.51c0-2.952-1.117-5.289-3.351-7.009c-2.233-1.721-6.319-3.354-12.257-4.904s-10.273-3.239-13.005-5.069
		c-3.889-2.587-5.833-5.979-5.833-10.176c0-4.074,1.806-7.387,5.419-9.938c3.612-2.549,8.23-3.824,13.853-3.824
		c3.81,0,7.219,0.684,10.228,2.05c3.008,1.366,5.34,3.27,6.995,5.709c1.655,2.44,2.483,5.161,2.483,8.162h-4.888
		c0-3.646-1.34-6.577-4.02-8.792s-6.28-3.322-10.799-3.322c-4.388,0-7.882,0.91-10.483,2.731c-2.601,1.82-3.901,4.196-3.901,7.13
		c0,2.713,1.169,4.925,3.508,6.636c2.338,1.711,6.082,3.22,11.231,4.527s9.052,2.663,11.705,4.065
		c2.654,1.403,4.651,3.081,5.991,5.033s2.01,4.258,2.01,6.917c0,4.197-1.807,7.564-5.419,10.103
		c-3.613,2.538-8.375,3.807-14.287,3.807c-4.046,0-7.757-0.672-11.133-2.014c-3.377-1.342-5.938-3.221-7.686-5.637
		c-1.747-2.415-2.621-5.185-2.621-8.309h4.848c0,3.759,1.511,6.723,4.532,8.895s7.041,3.258,12.06,3.258
		c4.467,0,8.054-0.915,10.76-2.745S1264.046,1150.536,1264.046,1147.51z"/>
	<path d="M1303.852,1138.908v21.705h-4.848v-53.292h19.548c5.964,0,10.673,1.416,14.129,4.246c3.454,2.831,5.182,6.723,5.182,11.676
		c0,5.003-1.661,8.864-4.985,11.584c-3.324,2.722-8.138,4.081-14.443,4.081H1303.852z M1303.852,1135.103h14.7
		c4.702,0,8.289-1.039,10.759-3.116s3.705-4.973,3.705-8.688c0-3.689-1.229-6.628-3.686-8.815
		c-2.457-2.187-5.944-3.305-10.464-3.354h-15.015V1135.103z"/>
	<path d="M1353.587,1156.807h28.336v3.807H1348.7v-53.292h4.887V1156.807z"/>
	<path d="M1422.95,1145.644h-26.051l-5.911,14.97h-5.084l21.715-53.292h4.611l21.716,53.292h-5.045L1422.95,1145.644z
		 M1398.397,1141.837h23.016l-11.508-29.025L1398.397,1141.837z"/>
	<path d="M1485.102,1160.613h-4.847l-32.987-45.605v45.605h-4.887v-53.292h4.887l33.026,45.643v-45.643h4.808V1160.613z"/>
</g>
<g>
	<path d="M573.423,1183.129h-19.646v49.485h-4.843v-49.485h-19.606v-3.807h44.094V1183.129z"/>
	<path d="M625.155,1232.614h-4.882v-25.548h-32.756v25.548h-4.842v-53.292h4.842v23.938h32.756v-23.938h4.882V1232.614z"/>
	<path d="M671.375,1207.066h-26.811v21.741h30.827v3.807h-35.669v-53.292h35.472v3.807h-30.63v20.131h26.811V1207.066z"/>
	<path d="M691.493,1232.614h-4.842v-53.292h4.842V1232.614z"/>
	<path d="M728.461,1210.397h-16.653v22.217h-4.882v-53.292h18.622c6.115,0,10.892,1.378,14.331,4.132
		c3.438,2.754,5.157,6.604,5.157,11.552c0,3.412-1.076,6.422-3.228,9.03c-2.152,2.607-5.04,4.411-8.662,5.41l14.331,22.691v0.477
		h-5.157L728.461,1210.397z M711.808,1206.591h14.842c4.068,0,7.336-1.075,9.803-3.227c2.467-2.15,3.701-4.937,3.701-8.358
		c0-3.763-1.286-6.684-3.858-8.761c-2.573-2.077-6.181-3.116-10.827-3.116h-13.662V1206.591z"/>
	<path d="M809.406,1207.688h-26.732v24.926h-4.842v-53.292h35.512v3.807h-30.669v20.753h26.732V1207.688z"/>
	<path d="M829.091,1232.614h-4.842v-53.292h4.842V1232.614z"/>
	<path d="M887.319,1232.614h-4.842l-32.953-45.605v45.605h-4.882v-53.292h4.882l32.992,45.643v-45.643h4.803V1232.614z"/>
	<path d="M933.54,1217.645h-26.023l-5.906,14.97h-5.079l21.693-53.292h4.606l21.693,53.292h-5.039L933.54,1217.645z
		 M909.012,1213.838h22.992l-11.496-29.025L909.012,1213.838z"/>
	<path d="M995.626,1232.614h-4.842l-32.953-45.605v45.605h-4.882v-53.292h4.882l32.992,45.643v-45.643h4.803V1232.614z"/>
	<path d="M1050.783,1215.997c-0.656,5.612-2.814,9.907-6.476,12.884c-3.662,2.978-8.537,4.466-14.626,4.466
		c-4.252,0-8.012-0.988-11.279-2.965c-3.269-1.977-5.795-4.776-7.579-8.4c-1.785-3.623-2.69-7.765-2.717-12.426v-6.918
		c0-4.733,0.893-8.931,2.678-12.591c1.784-3.66,4.35-6.484,7.696-8.474c3.347-1.988,7.198-2.982,11.556-2.982
		c6.142,0,10.99,1.537,14.547,4.611c3.556,3.075,5.623,7.333,6.2,12.774h-4.882c-1.207-9.053-6.495-13.579-15.865-13.579
		c-5.197,0-9.338,1.807-12.422,5.421s-4.626,8.608-4.626,14.981v6.521c0,6.153,1.503,11.062,4.508,14.726s7.067,5.494,12.186,5.494
		c5.065,0,8.884-1.129,11.456-3.386s4.16-5.643,4.764-10.157H1050.783z"/>
	<path d="M1068.46,1232.614h-4.843v-53.292h4.843V1232.614z"/>
	<path d="M1115.664,1217.645h-26.023l-5.905,14.97h-5.079l21.693-53.292h4.606l21.692,53.292h-5.039L1115.664,1217.645z
		 M1091.137,1213.838h22.992l-11.496-29.025L1091.137,1213.838z"/>
	<path d="M1139.956,1228.808h28.307v3.807h-33.188v-53.292h4.882V1228.808z"/>
	<path d="M1228.734,1207.688h-26.731v24.926h-4.843v-53.292h35.512v3.807h-30.669v20.753h26.731V1207.688z"/>
	<path d="M1282.003,1179.322v36.382c-0.026,3.587-0.88,6.711-2.56,9.37c-1.68,2.66-4.049,4.703-7.106,6.131
		s-6.568,2.142-10.531,2.142c-6.037,0-10.873-1.531-14.508-4.594c-3.636-3.062-5.519-7.302-5.649-12.719v-36.712h4.803v36.053
		c0,4.49,1.378,7.974,4.134,10.449c2.756,2.478,6.496,3.716,11.221,3.716s8.458-1.245,11.201-3.733
		c2.742-2.489,4.114-5.954,4.114-10.396v-36.089H1282.003z"/>
	<path d="M1334.404,1183.129h-19.646v49.485h-4.843v-49.485h-19.606v-3.807h44.095V1183.129z"/>
	<path d="M1383.145,1179.322v36.382c-0.026,3.587-0.88,6.711-2.56,9.37c-1.68,2.66-4.049,4.703-7.106,6.131
		s-6.568,2.142-10.531,2.142c-6.037,0-10.873-1.531-14.508-4.594c-3.636-3.062-5.519-7.302-5.649-12.719v-36.712h4.803v36.053
		c0,4.49,1.378,7.974,4.134,10.449c2.756,2.478,6.496,3.716,11.221,3.716s8.458-1.245,11.201-3.733
		c2.742-2.489,4.114-5.954,4.114-10.396v-36.089H1383.145z"/>
	<path d="M1418.065,1210.397h-16.653v22.217h-4.882v-53.292h18.622c6.115,0,10.892,1.378,14.33,4.132s5.158,6.604,5.158,11.552
		c0,3.412-1.077,6.422-3.229,9.03c-2.152,2.607-5.039,4.411-8.661,5.41l14.33,22.691v0.477h-5.157L1418.065,1210.397z
		 M1401.412,1206.591h14.843c4.067,0,7.335-1.075,9.803-3.227c2.467-2.15,3.701-4.937,3.701-8.358c0-3.763-1.286-6.684-3.858-8.761
		s-6.182-3.116-10.827-3.116h-13.661V1206.591z"/>
	<path d="M1479.482,1207.066h-26.811v21.741h30.826v3.807h-35.669v-53.292h35.473v3.807h-30.63v20.131h26.811V1207.066z"/>
</g>
<g>
</g>
<g>
</g>
<g>
</g>
<g>
</g>
<g>
</g>
<g>
</g>
</svg>
